<svg xmlns="http://www.w3.org/2000/svg" viewBox="0 0 400 560"><defs><pattern id="linen" width="5" height="5" patternUnits="userSpaceOnUse"><path d="M0 0h5M0 0v5" stroke="#fff" opacity=".035"/></pattern><linearGradient id="spine"><stop stop-color="#000" stop-opacity=".35"/><stop offset=".07" stop-color="#fff" stop-opacity=".12"/><stop offset=".12" stop-color="#000" stop-opacity="0"/></linearGradient></defs><rect width="400" height="560" fill="#45445e"/><rect width="400" height="560" fill="url(#linen)"/><rect x="24" y="22" width="352" height="516" rx="1" fill="none" stroke="#dfcca3" opacity=".4"/><rect x="30" y="28" width="340" height="504" fill="none" stroke="#dfcca3" opacity=".18"/><text x="200" y="67" text-anchor="middle" fill="#e3d5b6" font-family="Georgia,serif" font-size="11" letter-spacing="3">JARDÍN DE VERSOS</text><path d="M176 85h48" stroke="#e3d5b6" opacity=".6"/><text x="200" y="135" text-anchor="middle" fill="#f4e8cd" font-family="Georgia,serif" font-size="31"><tspan x="200" dy="0">Poemas</tspan></text><circle cx="200" cy="322" r="64" fill="#d5cdad"/><circle cx="228" cy="300" r="61" fill="#45445e"/><path d="M110 410Q200 365 290 410M110 420Q200 375 290 420" fill="none" stroke="#d5cdad"/><path d="M102 263h10M107 258v10" stroke="#d5cdad"/><path d="M285 315h10M290 310v10" stroke="#d5cdad"/><path d="M140 223h10M145 218v10" stroke="#d5cdad"/><path d="M280 230h10M285 225v10" stroke="#d5cdad"/><path d="M145 370h10M150 365v10" stroke="#d5cdad"/><text x="200" y="480" text-anchor="middle" fill="#e3d5b6" font-family="Georgia,serif" font-size="12" letter-spacing="1.8">EDGAR ALLAN POE</text><text x="200" y="513" text-anchor="middle" fill="#e3d5b6" font-family="Georgia,serif" font-size="9" letter-spacing="3">POESÍA · EN ESPAÑOL</text><rect width="400" height="560" fill="url(#spine)"/></svg>